# xmcd
#
# Track frame offsets: 
#        183
#        29413
#        49633
#        60845
#        84355
#        120030
#        140845
#        157743
#
# Disc length: 2390 seconds
#
# Revision: 2
# Processed by: cddbd v1.4PL0 Copyright (c) Steve Scherf et al.
# Submitted via: ExactAudioCopy v0.95a4
#
DISCID=53095408
DTITLE=Plas Johnson - The Blues
DYEAR=1976
DGENRE=Jazz
TTITLE0=Our Day Will Come
TTITLE1=Georgia On My Mind
TTITLE2=Bucket O' Blues
TTITLE3=Please Send Me Someone To Love
TTITLE4=Parking Lot Blues
TTITLE5=Don't You Know Little Girl
TTITLE6=Time After Time
TTITLE7=Once More For Johnny
EXTD=1976 Concord Jazz, Inc.
EXTT0=
EXTT1=
EXTT2=
EXTT3=
EXTT4=
EXTT5=
EXTT6=
EXTT7=
PLAYORDER=
